<?xml version="1.0" encoding="UTF-8" standalone="no"?>
<svg
   xmlns:svg="http://www.w3.org/2000/svg"
   xmlns:xlink="http://www.w3.org/1999/xlink"
   xmlns="http://www.w3.org/2000/svg"
   width="1024"
   height="1024"
   viewBox="0 0 1024 1024">
  <defs>
    <radialGradient id="pistilColor">
      <stop offset="0%" stop-color="hsl(0,0%,85%)" stop-opacity="1" />
      <stop offset="100%" stop-color="hsl(0,0%,100%)" stop-opacity="1" />
    </radialGradient>
    <radialGradient id="petalColor" cx="0%" cy="50%" r="100%">
      <stop offset="25%" stop-color="hsl(0,0%,85%)" stop-opacity="1" />
      <stop offset="100%" stop-color="hsl(0,0%,100%)" stop-opacity="1" />
    </radialGradient>
    <circle r="96" transform="translate(512,512)" stroke="none" id="pistil" />
    <path d="M 0,0 C 300,52.898094212539492 354,36 374,18 Q 394,0 374,-18 C 354,-36 300,-52.898094212539492 0,0 Z" transform="translate(512,512)" stroke="none" id="petal" />
  </defs>
  <use xlink:href="#petal" transform="rotate(0,512,512)" />
  <use xlink:href="#petal" transform="rotate(20,512,512)" />
  <use xlink:href="#petal" transform="rotate(40,512,512)" />
  <use xlink:href="#petal" transform="rotate(60,512,512)" />
  <use xlink:href="#petal" transform="rotate(80,512,512)" />
  <use xlink:href="#petal" transform="rotate(100,512,512)" />
  <use xlink:href="#petal" transform="rotate(120,512,512)" />
  <use xlink:href="#petal" transform="rotate(140,512,512)" />
  <use xlink:href="#petal" transform="rotate(160,512,512)" />
  <use xlink:href="#petal" transform="rotate(180,512,512)" />
  <use xlink:href="#petal" transform="rotate(200,512,512)" />
  <use xlink:href="#petal" transform="rotate(220,512,512)" />
  <use xlink:href="#petal" transform="rotate(240,512,512)" />
  <use xlink:href="#petal" transform="rotate(260,512,512)" />
  <use xlink:href="#petal" transform="rotate(280,512,512)" />
  <use xlink:href="#petal" transform="rotate(300,512,512)" />
  <use xlink:href="#petal" transform="rotate(320,512,512)" />
  <use xlink:href="#petal" transform="rotate(340,512,512)" />
  <use xlink:href="#pistil" />
</svg>
